<svg width="257" height="63" viewBox="0 0 257 63" fill="none" xmlns="http://www.w3.org/2000/svg">
<path d="M74.8389 44.2438H93.2321V38.7121H81.3762V17.876H74.8389V44.2438Z" fill="white"/>
<path d="M104.129 40.556C101.507 40.556 100.141 38.2696 100.141 34.8399C100.141 31.4103 101.507 29.0869 104.129 29.0869C106.752 29.0869 108.155 31.4103 108.155 34.8399C108.155 38.2696 106.752 40.556 104.129 40.556ZM104.166 44.8339C110.261 44.8339 114.249 40.5191 114.249 34.8399C114.249 29.1607 110.261 24.846 104.166 24.846C98.1092 24.846 94.0464 29.1607 94.0464 34.8399C94.0464 40.5191 98.1092 44.8339 104.166 44.8339Z" fill="white"/>
<path d="M124.798 50.7712C127.605 50.7712 130.079 50.1443 131.741 48.6692C133.256 47.3047 134.253 45.2395 134.253 42.3999V25.3623H128.491V27.3906H128.417C127.309 25.8048 125.61 24.8091 123.099 24.8091C118.408 24.8091 115.158 28.7182 115.158 34.2499C115.158 40.0397 119.11 43.2112 123.357 43.2112C125.647 43.2112 127.088 42.2893 128.196 41.0354H128.343V42.9162C128.343 45.2027 127.272 46.5303 124.724 46.5303C122.73 46.5303 121.732 45.6821 121.4 44.6864H115.564C116.155 48.6323 119.59 50.7712 124.798 50.7712ZM124.761 38.749C122.508 38.749 121.031 36.9051 121.031 34.0655C121.031 31.189 122.508 29.3451 124.761 29.3451C127.272 29.3451 128.602 31.484 128.602 34.0286C128.602 36.6838 127.383 38.749 124.761 38.749Z" fill="white"/>
<path d="M146.1 40.556C143.478 40.556 142.111 38.2696 142.111 34.8399C142.111 31.4103 143.478 29.0869 146.1 29.0869C148.723 29.0869 150.126 31.4103 150.126 34.8399C150.126 38.2696 148.723 40.556 146.1 40.556ZM146.137 44.8339C152.231 44.8339 156.221 40.5191 156.221 34.8399C156.221 29.1607 152.231 24.846 146.137 24.846C140.08 24.846 136.017 29.1607 136.017 34.8399C136.017 40.5191 140.08 44.8339 146.137 44.8339Z" fill="white"/>
<path d="M157.978 44.2438H163.998V25.3623H157.978V44.2438ZM157.978 22.7439H163.998V17.876H157.978V22.7439Z" fill="white"/>
<path d="M166.61 50.4762H172.63V42.2893H172.704C173.886 43.875 175.622 44.8339 178.059 44.8339C183.009 44.8339 186.296 40.9248 186.296 34.803C186.296 29.1238 183.23 24.8091 178.207 24.8091C175.622 24.8091 173.775 25.9523 172.482 27.6487H172.372V25.3623H166.61V50.4762ZM176.508 40.1872C173.923 40.1872 172.445 38.0852 172.445 35.0243C172.445 31.9634 173.775 29.6401 176.397 29.6401C178.983 29.6401 180.202 31.779 180.202 35.0243C180.202 38.2327 178.798 40.1872 176.508 40.1872Z" fill="white"/>
<path d="M196.099 44.8339C201.048 44.8339 204.704 42.6949 204.704 38.5646C204.704 33.7336 200.789 32.8854 197.465 32.3322C195.065 31.8897 192.922 31.7053 192.922 30.3777C192.922 29.1976 194.067 28.6444 195.545 28.6444C197.207 28.6444 198.352 29.1607 198.573 30.8571H204.113C203.818 27.1324 200.937 24.8091 195.582 24.8091C191.113 24.8091 187.419 26.8743 187.419 30.8571C187.419 35.2825 190.928 36.1675 194.215 36.7207C196.727 37.1632 199.017 37.3476 199.017 39.044C199.017 40.261 197.872 40.9248 196.062 40.9248C194.067 40.9248 192.812 40.0028 192.59 38.1221H186.902C187.087 42.2893 190.559 44.8339 196.099 44.8339Z" fill="white"/>
<path d="M212.881 44.797C215.503 44.797 217.165 43.7644 218.532 41.9205H218.642V44.2438H224.404V25.3623H218.384V35.9094C218.384 38.1589 217.128 39.7078 215.06 39.7078C213.139 39.7078 212.216 38.5646 212.216 36.4994V25.3623H206.232V37.7533C206.232 41.9574 208.522 44.797 212.881 44.797Z" fill="white"/>
<path d="M227.023 44.2438H233.044V33.6598C233.044 31.4103 234.152 29.8245 236.035 29.8245C237.845 29.8245 238.695 31.0046 238.695 33.0329V44.2438H244.715V33.6598C244.715 31.4103 245.786 29.8245 247.706 29.8245C249.516 29.8245 250.366 31.0046 250.366 33.0329V44.2438H256.386V31.9634C256.386 27.7225 254.244 24.8091 249.959 24.8091C247.522 24.8091 245.49 25.8417 244.013 28.1281H243.939C242.979 26.0998 241.095 24.8091 238.621 24.8091C235.888 24.8091 234.078 26.0998 232.896 28.0544H232.785V25.3623H227.023V44.2438Z" fill="white"/>
<path fill-rule="evenodd" clip-rule="evenodd" d="M13.3181 5.97961C11.1164 7.51675 9.12551 9.33414 7.39723 11.38C14.4598 10.7253 23.4325 11.7943 33.8498 16.9951C44.9741 22.5486 53.9318 22.7364 60.166 21.5357C59.6003 19.8256 58.8881 18.1821 58.0446 16.6197C50.9082 17.3713 41.7593 16.3765 31.097 11.0536C24.3264 7.6734 18.3581 6.28099 13.3181 5.97961ZM53.8758 10.695C48.2401 4.40788 40.0501 0.45118 30.9345 0.45118C28.2575 0.45118 25.6601 0.792466 23.184 1.4338C26.5376 2.34746 30.1002 3.68413 33.8498 5.55612C41.6562 9.4533 48.3957 10.7081 53.8758 10.695ZM61.4989 27.5382C53.9674 29.0232 43.5672 28.7182 31.097 22.4925C19.4387 16.6723 10.1598 16.7456 3.90169 18.1342C3.57867 18.2058 3.26325 18.2811 2.95545 18.3594C2.13611 20.1386 1.48209 22.0096 1.01283 23.9524C1.51403 23.8188 2.03194 23.6917 2.5663 23.5731C10.1584 21.8885 20.8855 21.9616 33.8498 28.4341C45.5082 34.2543 54.7872 34.181 61.0453 32.7924C61.2597 32.7449 61.471 32.6958 61.6788 32.6451C61.7015 32.1606 61.7129 31.673 61.7129 31.1828C61.7129 29.9497 61.6403 28.7335 61.4989 27.5382ZM60.6738 39.1305C53.2155 40.4325 43.1181 39.9328 31.097 33.9315C19.4387 28.1112 10.1598 28.1845 3.90169 29.5731C2.51258 29.8812 1.26296 30.2566 0.160614 30.6529C0.157609 30.8291 0.156105 31.0058 0.156105 31.1828C0.156105 48.1555 13.9361 61.9146 30.9345 61.9146C45.1804 61.9146 57.1659 52.2508 60.6738 39.1305Z" fill="#5528D5"/>
</svg>
